Title                            : Gamer
Year                             : 2009
Genre                            : Action | Sci-Fi | Thriller
iMDB URL                         : http://www.imdb.com/title/tt1034032/
Awards                           : 1 win

Complete name                    : Gamer.2009.BRRIP.H264-ZEKTORM.mp4
Format                           : MPEG-4
Format profile                   : Base Media
Codec ID                         : isom
File size                        : 700 MiB
Duration                         : 1h 34mn
Overall bit rate                 : 1032 Kbps

Video
Format                           : AVC
Format/Info                      : Advanced Video Codec
Format profile                   : High@L4.1
Format settings, CABAC           : Yes
Codec ID                         : avc1
Codec ID/Info                    : Advanced Video Coding
Duration                         : 1h 34mn
Bit rate mode                    : Variable
Bit rate                         : 817 Kbps
Width                            : 720 pixels
Height                           : 384 pixels
Display aspect ratio             : 1.875
Frame rate mode                  : Constant
Frame rate                       : 23.976 fps
Resolution                       : 24 bits
Colorimetry                      : 4:2:0
Scan type                        : Progressive
Bits/(Pixel*Frame)               : 0.123
Stream size                      : 554 MiB (79%)
Title                            : Video
Writing library                  : x264 

Audio
Format                           : AAC
Format/Info                      : Advanced Audio Codec
Duration                         : 1h 34mn
Bit rate mode                    : Variable
Bit rate                         : 213 Kbps
Maximum bit rate                 : 249 Kbps
Channel(s)                       : 6 channels
Channel positions                : Front: L C R, Rear: L R, LFE
Sampling rate                    : 48.0 KHz
Resolution                       : 16 bits
Stream size                      : 145 MiB (21%)
Title                            : English
Language                         : English
